<svg width="37" height="37" viewBox="0 0 37 37" fill="none" xmlns="http://www.w3.org/2000/svg">
<path d="M10.8439 0.126159C8.92452 0.216714 7.6138 0.523016 6.46797 0.973264C5.28209 1.43542 4.27695 2.0556 3.27687 3.05928C2.27679 4.06296 1.66094 5.06881 1.20203 6.25649C0.75791 7.40484 0.45702 8.71663 0.372237 10.637C0.287454 12.5575 0.268693 13.1748 0.278073 18.0734C0.287454 22.972 0.3091 23.5861 0.402182 25.5104C0.49382 27.4294 0.799039 28.7398 1.24929 29.8859C1.71217 31.0718 2.33163 32.0766 3.33568 33.077C4.33973 34.0775 5.34486 34.6919 6.53543 35.1515C7.68271 35.5949 8.99487 35.8972 10.9149 35.9813C12.835 36.0653 13.453 36.0848 18.3502 36.0754C23.2475 36.0661 23.864 36.0444 25.7881 35.9531C27.7121 35.8619 29.0156 35.5545 30.1622 35.1064C31.348 34.6424 32.3535 34.0241 33.3533 33.0197C34.353 32.0153 34.9685 31.0087 35.427 29.8203C35.8715 28.673 36.1735 27.3609 36.2568 25.4423C36.3409 23.5168 36.3607 22.902 36.3513 18.0041C36.342 13.1062 36.32 12.4922 36.2287 10.5685C36.1374 8.64484 35.8318 7.33845 35.3819 6.19155C34.9183 5.00567 34.2996 4.00163 33.2959 3.00047C32.2922 1.99932 31.2849 1.38419 30.0969 0.926724C28.9489 0.482609 27.6374 0.179915 25.7174 0.0969364C23.7973 0.0139579 23.1793 -0.00732812 18.2803 0.00205206C13.3812 0.0114322 12.7679 0.0323576 10.8439 0.126159ZM11.0546 32.7361C9.29576 32.6596 8.34077 32.3674 7.70436 32.1228C6.86158 31.7981 6.26124 31.4055 5.62699 30.7774C4.99274 30.1493 4.6031 29.5468 4.27407 28.7058C4.02693 28.0694 3.72929 27.1155 3.64703 25.3568C3.55756 23.4558 3.5388 22.8851 3.52834 18.0691C3.51787 13.2531 3.53627 12.683 3.61961 10.7814C3.69466 9.02401 3.98869 8.06795 4.23294 7.4319C4.55764 6.58804 4.94873 5.98879 5.57829 5.3549C6.20785 4.72102 6.80854 4.33066 7.65024 4.00163C8.28594 3.75341 9.23984 3.4583 10.9979 3.3746C12.9003 3.2844 13.4703 3.26636 18.2857 3.2559C23.101 3.24544 23.6725 3.26348 25.5756 3.34718C27.3329 3.42366 28.2894 3.71481 28.9247 3.9605C29.7678 4.2852 30.3678 4.6752 31.0017 5.30584C31.6356 5.93647 32.0263 6.53501 32.3553 7.3785C32.6039 8.01239 32.899 8.96593 32.982 10.7251C33.0726 12.6274 33.0931 13.1979 33.1018 18.0128C33.1105 22.8277 33.0935 23.3995 33.0102 25.3005C32.9333 27.0593 32.6418 28.0146 32.3968 28.6517C32.0721 29.4941 31.6807 30.0948 31.0508 30.7284C30.4208 31.3619 29.8209 31.7522 28.9788 32.0813C28.3438 32.3291 27.3889 32.625 25.6322 32.7087C23.7298 32.7981 23.1598 32.8169 18.3427 32.8274C13.5255 32.8378 12.9573 32.8183 11.0549 32.7361M25.7603 8.3977C25.761 8.82586 25.8887 9.24419 26.1272 9.59978C26.3656 9.95538 26.7042 10.2323 27.1001 10.3954C27.4959 10.5586 27.9313 10.6007 28.3511 10.5164C28.7709 10.4321 29.1562 10.2252 29.4584 9.92192C29.7606 9.61862 29.9661 9.2325 30.0488 8.81241C30.1316 8.39232 30.0879 7.95713 29.9233 7.56187C29.7587 7.16662 29.4805 6.82906 29.1241 6.59188C28.7676 6.35471 28.3488 6.22857 27.9206 6.22943C27.3467 6.23057 26.7966 6.45964 26.3915 6.86625C25.9864 7.27286 25.7593 7.82372 25.7603 8.3977ZM9.05259 18.0568C9.06269 23.1726 13.2174 27.3104 18.3322 27.3006C23.447 27.2909 27.5876 23.1365 27.5779 18.0207C27.5682 12.9049 23.4123 8.76605 18.2968 8.77615C13.1814 8.78625 9.04285 12.9417 9.05259 18.0568ZM12.3018 18.0503C12.2994 16.861 12.6498 15.6978 13.3086 14.7076C13.9673 13.7175 14.9049 12.9449 16.0028 12.4876C17.1006 12.0303 18.3094 11.9088 19.4763 12.1386C20.6432 12.3683 21.7157 12.9388 22.5584 13.7781C23.401 14.6174 23.9758 15.6877 24.2101 16.8536C24.4444 18.0196 24.3278 19.2289 23.8748 20.3285C23.4219 21.4281 22.653 22.3688 21.6655 23.0315C20.6779 23.6941 19.5161 24.0491 18.3268 24.0515C17.5371 24.0531 16.7548 23.8992 16.0247 23.5985C15.2945 23.2978 14.6307 22.8562 14.0712 22.2989C13.5117 21.7416 13.0675 21.0796 12.7639 20.3506C12.4603 19.6216 12.3032 18.84 12.3018 18.0503Z" fill="white"/>
</svg>
