<svg width="36" height="36" viewBox="0 0 36 36" fill="none" xmlns="http://www.w3.org/2000/svg">
<g clip-path="url(#clip0_140_44)">
<path d="M33.3435 0H2.65802C1.19039 0 0 1.19039 0 2.65802V33.342C0 34.8096 1.19039 36 2.65802 36H33.3435C34.8112 36 36.0016 34.8096 36.0016 33.342V2.65802C36 1.19039 34.8112 0 33.3435 0ZM10.7292 30.6683H5.31761V13.4749H10.7292V30.6683ZM8.02263 11.0926C6.29969 11.0926 4.90254 9.78159 4.90254 7.9866C4.90254 6.19161 6.29969 4.87905 8.02263 4.87905C9.74556 4.87905 11.1427 6.19161 11.1427 7.9866C11.1427 9.78159 9.74556 11.0926 8.02263 11.0926ZM30.6808 30.6808H25.2692V21.2908C25.2692 18.52 24.0914 17.6664 22.5721 17.6664C20.9666 17.6664 19.3909 18.8756 19.3909 21.3613V30.6824H13.9793V13.489H19.1841V15.8714H19.253C19.7762 14.8126 21.6041 13.0066 24.3968 13.0066C27.4166 13.0066 30.6808 14.7985 30.6808 20.0503V30.684V30.6808Z" fill="white"/>
</g>
<defs>
<clipPath id="clip0_140_44">
<rect width="36" height="36" fill="white"/>
</clipPath>
</defs>
</svg>
