<svg width="42" height="42" viewBox="0 0 42 42" fill="none" xmlns="http://www.w3.org/2000/svg">
<path d="M15.75 31.5H26.25C26.7458 31.5 27.1615 31.3323 27.4969 30.9969C27.8323 30.6615 28 30.2458 28 29.75C28 29.2542 27.8323 28.8385 27.4969 28.5031C27.1615 28.1677 26.7458 28 26.25 28H15.75C15.2542 28 14.8385 28.1677 14.5031 28.5031C14.1677 28.8385 14 29.2542 14 29.75C14 30.2458 14.1677 30.6615 14.5031 30.9969C14.8385 31.3323 15.2542 31.5 15.75 31.5ZM15.75 24.5H26.25C26.7458 24.5 27.1615 24.3323 27.4969 23.9969C27.8323 23.6615 28 23.2458 28 22.75C28 22.2542 27.8323 21.8385 27.4969 21.5031C27.1615 21.1677 26.7458 21 26.25 21H15.75C15.2542 21 14.8385 21.1677 14.5031 21.5031C14.1677 21.8385 14 22.2542 14 22.75C14 23.2458 14.1677 23.6615 14.5031 23.9969C14.8385 24.3323 15.2542 24.5 15.75 24.5ZM10.5 38.5C9.5375 38.5 8.71354 38.1573 8.02812 37.4719C7.34271 36.7865 7 35.9625 7 35V7C7 6.0375 7.34271 5.21354 8.02812 4.52812C8.71354 3.84271 9.5375 3.5 10.5 3.5H23.0562C23.5229 3.5 23.9677 3.5875 24.3906 3.7625C24.8135 3.9375 25.1854 4.18542 25.5063 4.50625L33.9937 12.9937C34.3146 13.3146 34.5625 13.6865 34.7375 14.1094C34.9125 14.5323 35 14.9771 35 15.4437V35C35 35.9625 34.6573 36.7865 33.9719 37.4719C33.2865 38.1573 32.4625 38.5 31.5 38.5H10.5ZM22.75 14C22.75 14.4958 22.9177 14.9115 23.2531 15.2469C23.5885 15.5823 24.0042 15.75 24.5 15.75H31.5L22.75 7V14Z" fill="white"/>
</svg>
