<svg width="36" height="35" viewBox="0 0 36 35" fill="none" xmlns="http://www.w3.org/2000/svg">
<path fill-rule="evenodd" clip-rule="evenodd" d="M17.6379 0C7.89322 0 0 7.90788 0 17.6707C0 25.4809 5.05642 32.098 12.0618 34.441C12.9388 34.6037 13.2636 34.0614 13.2636 33.5841C13.2636 33.161 13.2528 32.0546 13.242 30.5793C8.33714 31.6424 7.29771 28.2145 7.29771 28.2145C6.49648 26.1752 5.33794 25.6328 5.33794 25.6328C3.73547 24.5372 5.45704 24.5589 5.45704 24.5589C7.22191 24.6891 8.1639 26.3813 8.1639 26.3813C9.73389 29.0823 12.2892 28.3013 13.2961 27.8457C13.4585 26.7067 13.9133 25.9257 14.4113 25.4809C10.4918 25.0362 6.37737 23.5175 6.37737 16.7486C6.37737 14.8178 7.0595 13.2449 8.19639 12.0083C8.01232 11.5635 7.40598 9.76281 8.36963 7.33296C8.36963 7.33296 9.85299 6.85566 13.2203 9.1445C14.6279 8.75399 16.1329 8.55873 17.6379 8.54788C19.1321 8.54788 20.648 8.75399 22.0555 9.1445C25.4229 6.85566 26.9062 7.33296 26.9062 7.33296C27.8699 9.76281 27.2635 11.5635 27.0795 12.0083C28.2055 13.2449 28.8877 14.8178 28.8877 16.7486C28.8877 23.5392 24.7624 25.0253 20.832 25.4701C21.46 26.0125 22.0339 27.0972 22.0339 28.7461C22.0339 31.1108 22.0122 33.0092 22.0122 33.5949C22.0122 34.0722 22.3262 34.6146 23.2249 34.441C30.2303 32.098 35.2759 25.4809 35.2759 17.6815C35.2759 7.90788 27.3826 0 17.6379 0Z" fill="white"/>
</svg>
