<svg width="43" height="43" viewBox="0 0 43 43" fill="none" xmlns="http://www.w3.org/2000/svg">
<path d="M7.16665 35.8333C6.18123 35.8333 5.33765 35.4824 4.63592 34.7807C3.93418 34.079 3.58331 33.2354 3.58331 32.25V10.75C3.58331 9.76454 3.93418 8.92097 4.63592 8.21923C5.33765 7.51749 6.18123 7.16663 7.16665 7.16663H35.8333C36.8187 7.16663 37.6623 7.51749 38.364 8.21923C39.0658 8.92097 39.4166 9.76454 39.4166 10.75V32.25C39.4166 33.2354 39.0658 34.079 38.364 34.7807C37.6623 35.4824 36.8187 35.8333 35.8333 35.8333H7.16665ZM21.5 22.9781C21.6493 22.9781 21.8061 22.9557 21.9703 22.9109C22.1345 22.8661 22.2913 22.7989 22.4406 22.7093L35.1166 14.7812C35.3555 14.6319 35.5347 14.4453 35.6541 14.2213C35.7736 13.9974 35.8333 13.751 35.8333 13.4823C35.8333 12.885 35.5795 12.4371 35.0719 12.1385C34.5642 11.8399 34.0416 11.8548 33.5041 12.1833L21.5 19.7083L9.49581 12.1833C8.95831 11.8548 8.43574 11.8474 7.9281 12.1609C7.42047 12.4744 7.16665 12.9149 7.16665 13.4823C7.16665 13.7809 7.22637 14.0421 7.34581 14.2661C7.46526 14.4901 7.64442 14.6618 7.88331 14.7812L20.5594 22.7093C20.7087 22.7989 20.8654 22.8661 21.0297 22.9109C21.1939 22.9557 21.3507 22.9781 21.5 22.9781Z" fill="white"/>
</svg>
